<svg width="14" height="14" viewBox="0 0 14 14" fill="none" xmlns="http://www.w3.org/2000/svg">
<path d="M4 0.25V13.75H1.75C1.35218 13.75 0.970644 13.592 0.68934 13.3107C0.408035 13.0294 0.25 12.6478 0.25 12.25V1.75C0.25 1.35218 0.408035 0.970644 0.68934 0.68934C0.970644 0.408035 1.35218 0.25 1.75 0.25H4ZM8.5 0.25V13.75H5.5V0.25H8.5ZM12.25 0.25C12.6478 0.25 13.0294 0.408035 13.3107 0.68934C13.592 0.970644 13.75 1.35218 13.75 1.75V12.25C13.75 12.6478 13.592 13.0294 13.3107 13.3107C13.0294 13.592 12.6478 13.75 12.25 13.75H10V0.25H12.25Z" fill="#47647A"/>
</svg>
