<svg width="19" height="25" viewBox="0 0 19 25" fill="none" xmlns="http://www.w3.org/2000/svg">
<path d="M9.50008 6.90584C14.6544 6.90584 18.8334 5.54667 18.8334 3.87017C18.8334 2.1925 14.6544 0.833336 9.50008 0.833336C4.34575 0.833336 0.166748 2.1925 0.166748 3.87017C0.166748 5.54667 4.34575 6.90584 9.50008 6.90584ZM9.50008 24.1667C15.2902 24.1667 18.8334 22.1997 18.8334 21.1298V15.9918C18.7727 16.0292 18.7027 16.0618 18.6409 16.0968C18.3593 16.2624 18.0692 16.4132 17.7717 16.5483C17.5462 16.651 17.3129 16.7494 17.0717 16.8435C16.9994 16.8723 16.9259 16.9007 16.8512 16.9287C14.4844 17.7282 11.9994 18.1219 9.50125 18.093C7.01042 18.1245 4.53125 17.7313 2.15125 16.9287L1.93075 16.8435C1.59284 16.7139 1.26115 16.5687 0.936748 16.4083C0.741445 16.3113 0.549605 16.2074 0.361581 16.0968C0.299748 16.0618 0.229748 16.0292 0.169081 15.9918V21.1298C0.166748 22.2008 3.70992 24.1667 9.50008 24.1667ZM17.7717 7.91734C17.5417 8.0233 17.3082 8.12174 17.0717 8.2125C16.9994 8.24206 16.9259 8.27084 16.8512 8.29884C14.4844 9.09836 11.9994 9.49202 9.50125 9.46317C7.01042 9.49467 4.53125 9.1015 2.15125 8.29884L1.93075 8.2125C1.59287 8.08332 1.26117 7.9385 0.936748 7.7785C0.741428 7.68104 0.549588 7.57675 0.361581 7.46584C0.297415 7.43084 0.227415 7.39817 0.166748 7.36084V12.5C0.166748 13.5698 3.70992 15.5368 9.50008 15.5368C15.2902 15.5368 18.8334 13.5698 18.8334 12.5V7.362C18.7727 7.39817 18.7027 7.43084 18.6409 7.467C18.3593 7.63221 18.0691 7.78253 17.7717 7.91734Z" fill="#EBEBEB"/>
</svg>
