<svg width="12" height="16" viewBox="0 0 12 16" fill="none" xmlns="http://www.w3.org/2000/svg">
<path d="M6 4.40375C9.3135 4.40375 12 3.53 12 2.45225C12 1.37375 9.3135 0.5 6 0.5C2.6865 0.5 0 1.37375 0 2.45225C0 3.53 2.6865 4.40375 6 4.40375ZM6 15.5C9.72225 15.5 12 14.2355 12 13.5477V10.2447C11.961 10.2687 11.916 10.2897 11.8763 10.3122C11.6952 10.4187 11.5087 10.5156 11.3175 10.6025C11.1725 10.6685 11.0225 10.7317 10.8675 10.7922C10.821 10.8107 10.7738 10.829 10.7258 10.847C9.20418 11.361 7.60668 11.614 6.00075 11.5955C4.3995 11.6157 2.80575 11.363 1.27575 10.847L1.134 10.7922C0.916777 10.709 0.703546 10.6156 0.495 10.5125C0.369448 10.4501 0.246122 10.3833 0.12525 10.3122C0.0854999 10.2897 0.0404999 10.2687 0.00149989 10.2447V13.5477C-1.0879e-07 14.2362 2.27775 15.5 6 15.5ZM11.3175 5.054C11.1696 5.12212 11.0195 5.1854 10.8675 5.24375C10.821 5.26275 10.7738 5.28125 10.7258 5.29925C9.20418 5.81323 7.60668 6.0663 6.00075 6.04775C4.3995 6.068 2.80575 5.81525 1.27575 5.29925L1.134 5.24375C0.91679 5.16071 0.703559 5.06761 0.495 4.96475C0.369437 4.90209 0.246111 4.83505 0.12525 4.76375C0.0839999 4.74125 0.039 4.72025 0 4.69625V8C0 8.68775 2.27775 9.95225 6 9.95225C9.72225 9.95225 12 8.68775 12 8V4.697C11.961 4.72025 11.916 4.74125 11.8763 4.7645C11.6952 4.87071 11.5087 4.96734 11.3175 5.054Z" fill="#47657A"/>
</svg>
