<svg width="16" height="19" viewBox="0 0 16 19" fill="none" xmlns="http://www.w3.org/2000/svg">
<path d="M10.0001 9.5V17.38C10.0401 17.68 9.94013 18 9.71013 18.21C9.61762 18.3027 9.50773 18.3762 9.38675 18.4264C9.26578 18.4766 9.1361 18.5024 9.00513 18.5024C8.87416 18.5024 8.74448 18.4766 8.62351 18.4264C8.50253 18.3762 8.39264 18.3027 8.30013 18.21L6.29013 16.2C6.18113 16.0933 6.09824 15.9629 6.04794 15.819C5.99763 15.675 5.98127 15.5213 6.00013 15.37V9.5H5.97013L0.210131 2.12C0.0477393 1.91153 -0.0255351 1.64726 0.00631899 1.38493C0.0381731 1.1226 0.172566 0.883546 0.380131 0.72C0.570131 0.58 0.780131 0.5 1.00013 0.5H15.0001C15.2201 0.5 15.4301 0.58 15.6201 0.72C15.8277 0.883546 15.9621 1.1226 15.9939 1.38493C16.0258 1.64726 15.9525 1.91153 15.7901 2.12L10.0301 9.5H10.0001Z" fill="#47647A"/>
</svg>
