<svg width="21" height="21" viewBox="0 0 21 21" fill="none" xmlns="http://www.w3.org/2000/svg">
<path d="M20.5 14.5V18.5C20.5 19.0304 20.2893 19.5391 19.9142 19.9142C19.5391 20.2893 19.0304 20.5 18.5 20.5H14.5V18.5C14.5 17.9696 14.2893 17.4609 13.9142 17.0858C13.5391 16.7107 13.0304 16.5 12.5 16.5C11.9696 16.5 11.4609 16.7107 11.0858 17.0858C10.7107 17.4609 10.5 17.9696 10.5 18.5V20.5H6.5C5.96957 20.5 5.46086 20.2893 5.08579 19.9142C4.71071 19.5391 4.5 19.0304 4.5 18.5V14.5H2.5C1.96957 14.5 1.46086 14.2893 1.08579 13.9142C0.710714 13.5391 0.5 13.0304 0.5 12.5C0.5 11.9696 0.710714 11.4609 1.08579 11.0858C1.46086 10.7107 1.96957 10.5 2.5 10.5H4.5V6.5C4.5 5.4 5.4 4.5 6.5 4.5H10.5V2.5C10.5 1.96957 10.7107 1.46086 11.0858 1.08579C11.4609 0.710714 11.9696 0.5 12.5 0.5C13.0304 0.5 13.5391 0.710714 13.9142 1.08579C14.2893 1.46086 14.5 1.96957 14.5 2.5V4.5H18.5C19.0304 4.5 19.5391 4.71071 19.9142 5.08579C20.2893 5.46086 20.5 5.96957 20.5 6.5V10.5H18.5C17.9696 10.5 17.4609 10.7107 17.0858 11.0858C16.7107 11.4609 16.5 11.9696 16.5 12.5C16.5 13.0304 16.7107 13.5391 17.0858 13.9142C17.4609 14.2893 17.9696 14.5 18.5 14.5H20.5Z" fill="#EBEBEB"/>
</svg>
