<svg width="14" height="14" viewBox="0 0 14 14" fill="none" xmlns="http://www.w3.org/2000/svg">
<path d="M0.5 3.5H13.5M7 10.5V13.5M5.5 10.5L2.5 13.5M8.5 10.5L11.5 13.5M12.5 0.5H1.5C1.23478 0.5 0.98043 0.605357 0.792893 0.792893C0.605357 0.98043 0.5 1.23478 0.5 1.5V9.5C0.5 9.76522 0.605357 10.0196 0.792893 10.2071C0.98043 10.3946 1.23478 10.5 1.5 10.5H12.5C12.7652 10.5 13.0196 10.3946 13.2071 10.2071C13.3946 10.0196 13.5 9.76522 13.5 9.5V1.5C13.5 1.23478 13.3946 0.98043 13.2071 0.792893C13.0196 0.605357 12.7652 0.5 12.5 0.5Z" stroke="#47647A" stroke-linecap="round" stroke-linejoin="round"/>
</svg>
