<svg width="13" height="14" viewBox="0 0 13 14" fill="none" xmlns="http://www.w3.org/2000/svg">
<path d="M12.0622 9.04667V12.0622C12.0623 12.4426 11.9187 12.809 11.66 13.0879C11.4014 13.3668 11.0469 13.5377 10.6675 13.5662L10.5544 13.57H1.50778C1.12738 13.5701 0.761001 13.4265 0.482076 13.1678C0.203151 12.9092 0.0322991 12.5546 0.00376953 12.1753L0 12.0622V9.04667H12.0622ZM7.53889 10.5544C7.33894 10.5544 7.14719 10.6339 7.00581 10.7753C6.86443 10.9166 6.785 11.1084 6.785 11.3083C6.785 11.5083 6.86443 11.7 7.00581 11.8414C7.14719 11.9828 7.33894 12.0622 7.53889 12.0622C7.73883 12.0622 7.93059 11.9828 8.07197 11.8414C8.21335 11.7 8.29278 11.5083 8.29278 11.3083C8.29278 11.1084 8.21335 10.9166 8.07197 10.7753C7.93059 10.6339 7.73883 10.5544 7.53889 10.5544ZM9.80056 10.5544C9.60061 10.5544 9.40886 10.6339 9.26747 10.7753C9.12609 10.9166 9.04667 11.1084 9.04667 11.3083C9.04667 11.5083 9.12609 11.7 9.26747 11.8414C9.40886 11.9828 9.60061 12.0622 9.80056 12.0622C10.0005 12.0622 10.1923 11.9828 10.3336 11.8414C10.475 11.7 10.5544 11.5083 10.5544 11.3083C10.5544 11.1084 10.475 10.9166 10.3336 10.7753C10.1923 10.6339 10.0005 10.5544 9.80056 10.5544ZM12.0622 4.52333V7.53889H0V4.52333H12.0622ZM10.5544 0C10.9543 0 11.3378 0.158855 11.6206 0.441618C11.9034 0.724381 12.0622 1.10789 12.0622 1.50778V3.01556H0V1.50778C0 1.10789 0.158855 0.724381 0.441618 0.441618C0.724381 0.158855 1.10789 0 1.50778 0H10.5544Z" fill="#EBEBEB"/>
</svg>
