<svg width="10" height="11" viewBox="0 0 10 11" fill="none" xmlns="http://www.w3.org/2000/svg">
<path d="M9.66683 7.25V9.58333C9.66692 9.87767 9.55576 10.1612 9.35562 10.377C9.15549 10.5928 8.88117 10.725 8.58766 10.7471L8.50016 10.75H1.50016C1.20583 10.7501 0.922332 10.6389 0.70651 10.4388C0.490687 10.2387 0.358488 9.96434 0.336413 9.67083L0.333496 9.58333V7.25H9.66683ZM6.16683 8.41667C6.01212 8.41667 5.86375 8.47812 5.75435 8.58752C5.64495 8.69692 5.5835 8.84529 5.5835 9C5.5835 9.15471 5.64495 9.30308 5.75435 9.41248C5.86375 9.52188 6.01212 9.58333 6.16683 9.58333C6.32154 9.58333 6.46991 9.52188 6.57931 9.41248C6.6887 9.30308 6.75016 9.15471 6.75016 9C6.75016 8.84529 6.6887 8.69692 6.57931 8.58752C6.46991 8.47812 6.32154 8.41667 6.16683 8.41667ZM7.91683 8.41667C7.76212 8.41667 7.61375 8.47812 7.50435 8.58752C7.39495 8.69692 7.3335 8.84529 7.3335 9C7.3335 9.15471 7.39495 9.30308 7.50435 9.41248C7.61375 9.52188 7.76212 9.58333 7.91683 9.58333C8.07154 9.58333 8.21991 9.52188 8.32931 9.41248C8.4387 9.30308 8.50016 9.15471 8.50016 9C8.50016 8.84529 8.4387 8.69692 8.32931 8.58752C8.21991 8.47812 8.07154 8.41667 7.91683 8.41667ZM9.66683 3.75V6.08333H0.333496V3.75H9.66683ZM8.50016 0.25C8.80958 0.25 9.10633 0.372916 9.32512 0.591709C9.54391 0.810501 9.66683 1.10725 9.66683 1.41667V2.58333H0.333496V1.41667C0.333496 1.10725 0.456412 0.810501 0.675205 0.591709C0.893997 0.372916 1.19074 0.25 1.50016 0.25H8.50016Z" fill="#2B6EFF"/>
</svg>
