<svg width="14" height="14" viewBox="0 0 14 14" fill="none" xmlns="http://www.w3.org/2000/svg">
<g filter="url(#filter0_iii_195_384)">
<path d="M8.3025 0.872005L9.404 3.182C9.574 3.525 9.8855 3.76651 10.2465 3.82L12.7105 4.168C13.9795 4.35601 14.4585 5.7185 13.474 6.711L11.7475 8.492C11.6073 8.63367 11.5031 8.80692 11.4438 8.99721C11.3844 9.1875 11.3717 9.38925 11.4065 9.5855L11.7945 12.117C12.015 13.43 10.9095 14.362 9.7905 13.762L7.5225 12.5555C7.36804 12.4736 7.19585 12.4307 7.021 12.4307C6.84615 12.4307 6.67396 12.4736 6.5195 12.5555L4.2515 13.7615C3.1325 14.3565 1.9585 13.453 2.2865 12.086L2.6695 9.6095C2.70435 9.41325 2.69156 9.2115 2.63222 9.02121C2.57288 8.83092 2.46872 8.65767 2.3285 8.516L0.568001 6.672C-0.424499 5.6915 0.0625007 4.356 1.3315 4.1685L3.705 3.82C4.0665 3.76651 4.481 3.5305 4.6465 3.182L5.7705 0.872005C6.3425 -0.290495 7.7355 -0.290495 8.303 0.872005" fill="url(#paint0_radial_195_384)"/>
<path d="M8.3025 0.872005L9.404 3.182C9.574 3.525 9.8855 3.76651 10.2465 3.82L12.7105 4.168C13.9795 4.35601 14.4585 5.7185 13.474 6.711L11.7475 8.492C11.6073 8.63367 11.5031 8.80692 11.4438 8.99721C11.3844 9.1875 11.3717 9.38925 11.4065 9.5855L11.7945 12.117C12.015 13.43 10.9095 14.362 9.7905 13.762L7.5225 12.5555C7.36804 12.4736 7.19585 12.4307 7.021 12.4307C6.84615 12.4307 6.67396 12.4736 6.5195 12.5555L4.2515 13.7615C3.1325 14.3565 1.9585 13.453 2.2865 12.086L2.6695 9.6095C2.70435 9.41325 2.69156 9.2115 2.63222 9.02121C2.57288 8.83092 2.46872 8.65767 2.3285 8.516L0.568001 6.672C-0.424499 5.6915 0.0625007 4.356 1.3315 4.1685L3.705 3.82C4.0665 3.76651 4.481 3.5305 4.6465 3.182L5.7705 0.872005C6.3425 -0.290495 7.7355 -0.290495 8.303 0.872005" fill="url(#paint1_radial_195_384)"/>
</g>
<path d="M8.3025 0.872005L9.404 3.182C9.574 3.525 9.8855 3.76651 10.2465 3.82L12.7105 4.168C13.9795 4.35601 14.4585 5.7185 13.474 6.711L11.7475 8.492C11.6073 8.63367 11.5031 8.80692 11.4438 8.99721C11.3844 9.1875 11.3717 9.38925 11.4065 9.5855L11.7945 12.117C12.015 13.43 10.9095 14.362 9.7905 13.762L7.5225 12.5555C7.36804 12.4736 7.19585 12.4307 7.021 12.4307C6.84615 12.4307 6.67396 12.4736 6.5195 12.5555L4.2515 13.7615C3.1325 14.3565 1.9585 13.453 2.2865 12.086L2.6695 9.6095C2.70435 9.41325 2.69156 9.2115 2.63222 9.02121C2.57288 8.83092 2.46872 8.65767 2.3285 8.516L0.568001 6.672C-0.424499 5.6915 0.0625007 4.356 1.3315 4.1685L3.705 3.82C4.0665 3.76651 4.481 3.5305 4.6465 3.182L5.7705 0.872005C6.3425 -0.290495 7.7355 -0.290495 8.303 0.872005" fill="url(#paint2_radial_195_384)"/>
<path d="M8.3025 0.872005L9.404 3.182C9.574 3.525 9.8855 3.76651 10.2465 3.82L12.7105 4.168C13.9795 4.35601 14.4585 5.7185 13.474 6.711L11.7475 8.492C11.6073 8.63367 11.5031 8.80692 11.4438 8.99721C11.3844 9.1875 11.3717 9.38925 11.4065 9.5855L11.7945 12.117C12.015 13.43 10.9095 14.362 9.7905 13.762L7.5225 12.5555C7.36804 12.4736 7.19585 12.4307 7.021 12.4307C6.84615 12.4307 6.67396 12.4736 6.5195 12.5555L4.2515 13.7615C3.1325 14.3565 1.9585 13.453 2.2865 12.086L2.6695 9.6095C2.70435 9.41325 2.69156 9.2115 2.63222 9.02121C2.57288 8.83092 2.46872 8.65767 2.3285 8.516L0.568001 6.672C-0.424499 5.6915 0.0625007 4.356 1.3315 4.1685L3.705 3.82C4.0665 3.76651 4.481 3.5305 4.6465 3.182L5.7705 0.872005C6.3425 -0.290495 7.7355 -0.290495 8.303 0.872005" fill="url(#paint3_radial_195_384)"/>
<path d="M8.3025 0.872005L9.404 3.182C9.574 3.525 9.8855 3.76651 10.2465 3.82L12.7105 4.168C13.9795 4.35601 14.4585 5.7185 13.474 6.711L11.7475 8.492C11.6073 8.63367 11.5031 8.80692 11.4438 8.99721C11.3844 9.1875 11.3717 9.38925 11.4065 9.5855L11.7945 12.117C12.015 13.43 10.9095 14.362 9.7905 13.762L7.5225 12.5555C7.36804 12.4736 7.19585 12.4307 7.021 12.4307C6.84615 12.4307 6.67396 12.4736 6.5195 12.5555L4.2515 13.7615C3.1325 14.3565 1.9585 13.453 2.2865 12.086L2.6695 9.6095C2.70435 9.41325 2.69156 9.2115 2.63222 9.02121C2.57288 8.83092 2.46872 8.65767 2.3285 8.516L0.568001 6.672C-0.424499 5.6915 0.0625007 4.356 1.3315 4.1685L3.705 3.82C4.0665 3.76651 4.481 3.5305 4.6465 3.182L5.7705 0.872005C6.3425 -0.290495 7.7355 -0.290495 8.303 0.872005" fill="url(#paint4_radial_195_384)"/>
<path d="M8.3025 0.872005L9.404 3.182C9.574 3.525 9.8855 3.76651 10.2465 3.82L12.7105 4.168C13.9795 4.35601 14.4585 5.7185 13.474 6.711L11.7475 8.492C11.6073 8.63367 11.5031 8.80692 11.4438 8.99721C11.3844 9.1875 11.3717 9.38925 11.4065 9.5855L11.7945 12.117C12.015 13.43 10.9095 14.362 9.7905 13.762L7.5225 12.5555C7.36804 12.4736 7.19585 12.4307 7.021 12.4307C6.84615 12.4307 6.67396 12.4736 6.5195 12.5555L4.2515 13.7615C3.1325 14.3565 1.9585 13.453 2.2865 12.086L2.6695 9.6095C2.70435 9.41325 2.69156 9.2115 2.63222 9.02121C2.57288 8.83092 2.46872 8.65767 2.3285 8.516L0.568001 6.672C-0.424499 5.6915 0.0625007 4.356 1.3315 4.1685L3.705 3.82C4.0665 3.76651 4.481 3.5305 4.6465 3.182L5.7705 0.872005C6.3425 -0.290495 7.7355 -0.290495 8.303 0.872005" fill="url(#paint5_radial_195_384)"/>
<defs>
<filter id="filter0_iii_195_384" x="-0.586403" y="-0.24987" width="15.3363" height="14.8229" filterUnits="userSpaceOnUse" color-interpolation-filters="sRGB">
<feFlood flood-opacity="0" result="BackgroundImageFix"/>
<feBlend mode="normal" in="SourceGraphic" in2="BackgroundImageFix" result="shape"/>
<feColorMatrix in="SourceAlpha" type="matrix" values="0 0 0 0 0 0 0 0 0 0 0 0 0 0 0 0 0 0 127 0" result="hardAlpha"/>
<feOffset dy="-0.25"/>
<feGaussianBlur stdDeviation="0.75"/>
<feComposite in2="hardAlpha" operator="arithmetic" k2="-1" k3="1"/>
<feColorMatrix type="matrix" values="0 0 0 0 0.772549 0 0 0 0 0.494118 0 0 0 0 0.282353 0 0 0 1 0"/>
<feBlend mode="normal" in2="shape" result="effect1_innerShadow_195_384"/>
<feColorMatrix in="SourceAlpha" type="matrix" values="0 0 0 0 0 0 0 0 0 0 0 0 0 0 0 0 0 0 127 0" result="hardAlpha"/>
<feOffset dx="-0.625" dy="0.625"/>
<feGaussianBlur stdDeviation="0.375"/>
<feComposite in2="hardAlpha" operator="arithmetic" k2="-1" k3="1"/>
<feColorMatrix type="matrix" values="0 0 0 0 1 0 0 0 0 0.952941 0 0 0 0 0.286275 0 0 0 1 0"/>
<feBlend mode="normal" in2="effect1_innerShadow_195_384" result="effect2_innerShadow_195_384"/>
<feColorMatrix in="SourceAlpha" type="matrix" values="0 0 0 0 0 0 0 0 0 0 0 0 0 0 0 0 0 0 127 0" result="hardAlpha"/>
<feOffset dx="0.75" dy="-0.25"/>
<feGaussianBlur stdDeviation="0.375"/>
<feComposite in2="hardAlpha" operator="arithmetic" k2="-1" k3="1"/>
<feColorMatrix type="matrix" values="0 0 0 0 0.698039 0 0 0 0 0.537255 0 0 0 0 0.192157 0 0 0 1 0"/>
<feBlend mode="normal" in2="effect2_innerShadow_195_384" result="effect3_innerShadow_195_384"/>
</filter>
<radialGradient id="paint0_radial_195_384" cx="0" cy="0" r="1" gradientUnits="userSpaceOnUse" gradientTransform="translate(11.2708 3.48472) rotate(132.939) scale(9.99015 9.88655)">
<stop stop-color="#FAC632"/>
<stop offset="1" stop-color="#F7C632"/>
</radialGradient>
<radialGradient id="paint1_radial_195_384" cx="0" cy="0" r="1" gradientUnits="userSpaceOnUse" gradientTransform="translate(7.0195 6.974) rotate(90) scale(6.9739 6.9807)">
<stop stop-color="#DDBA38"/>
<stop offset="1" stop-color="#DDBA38" stop-opacity="0"/>
</radialGradient>
<radialGradient id="paint2_radial_195_384" cx="0" cy="0" r="1" gradientUnits="userSpaceOnUse" gradientTransform="translate(2.53 4.041) rotate(74.0547) scale(1.13258 3.7797)">
<stop stop-color="#DDBA38"/>
<stop offset="1" stop-color="#DDBA38" stop-opacity="0"/>
</radialGradient>
<radialGradient id="paint3_radial_195_384" cx="0" cy="0" r="1" gradientUnits="userSpaceOnUse" gradientTransform="translate(0.0385006 4.76) rotate(16.0829) scale(1.96551 1.96743)">
<stop stop-color="#B5953A"/>
<stop offset="1" stop-color="#B5953A" stop-opacity="0"/>
</radialGradient>
<radialGradient id="paint4_radial_195_384" cx="0" cy="0" r="1" gradientUnits="userSpaceOnUse" gradientTransform="translate(3.444 14.4055) rotate(-58.4961) scale(1.41411 1.41549)">
<stop stop-color="#C47E42"/>
<stop offset="1" stop-color="#C47E42" stop-opacity="0"/>
</radialGradient>
<radialGradient id="paint5_radial_195_384" cx="0" cy="0" r="1" gradientUnits="userSpaceOnUse" gradientTransform="translate(14.5284 4.83808) rotate(150.751) scale(1.1144 1.4653)">
<stop stop-color="#FFF246"/>
<stop offset="1" stop-color="#FFF246" stop-opacity="0"/>
</radialGradient>
</defs>
</svg>
