<svg width="34" height="38" viewBox="0 0 34 38" fill="none" xmlns="http://www.w3.org/2000/svg">
<path d="M4 16.5H3.5V16H4V16.5ZM4.35355 31.8536C4.15829 32.0488 3.84171 32.0488 3.64645 31.8536L0.464466 28.6716C0.269204 28.4763 0.269204 28.1597 0.464466 27.9645C0.659728 27.7692 0.976311 27.7692 1.17157 27.9645L4 30.7929L6.82843 27.9645C7.02369 27.7692 7.34027 27.7692 7.53553 27.9645C7.7308 28.1597 7.7308 28.4763 7.53553 28.6716L4.35355 31.8536ZM34 16.5V17H4V16.5V16H34V16.5ZM4 16.5H4.5V31.5H4H3.5V16.5H4Z" fill="#3C3C3C"/>
</svg>
