<svg width="12" height="12" viewBox="0 0 12 12" fill="none" xmlns="http://www.w3.org/2000/svg">
<path d="M5.625 8.16375H0V10.7887C0 11.1217 0.11875 11.4067 0.35625 11.6437C0.59375 11.8807 0.87875 11.9995 1.21125 12H5.625V8.16375ZM6.375 8.16375V12H10.7887C11.1217 12 11.4067 11.8812 11.6437 11.6437C11.8807 11.4062 11.9995 11.1213 12 10.7887V8.16375H6.375ZM5.625 7.41375V3.57675H0V7.41375H5.625ZM6.375 7.41375H12V3.57675H6.375V7.41375ZM0 2.82675H12V1.21125C12 0.87825 11.8812 0.59325 11.6437 0.35625C11.4062 0.11925 11.1215 0.0005 10.7895 0H1.21125C0.87825 0 0.59325 0.11875 0.35625 0.35625C0.11925 0.59375 0.0005 0.87875 0 1.21125V2.82675Z" fill="#47647A"/>
</svg>
