<svg width="20" height="20" viewBox="0 0 20 20" fill="none" xmlns="http://www.w3.org/2000/svg">
<path d="M13.3337 15.0003C13.5547 15.0003 13.7666 14.9125 13.9229 14.7562C14.0792 14.6 14.167 14.388 14.167 14.167C14.167 13.946 14.0792 13.734 13.9229 13.5777C13.7666 13.4215 13.5547 13.3337 13.3337 13.3337V15.0003ZM6.66699 13.3337C6.44598 13.3337 6.23402 13.4215 6.07774 13.5777C5.92146 13.734 5.83366 13.946 5.83366 14.167C5.83366 14.388 5.92146 14.6 6.07774 14.7562C6.23402 14.9125 6.44598 15.0003 6.66699 15.0003V13.3337ZM7.25616 6.07783C7.17929 5.99823 7.08733 5.93475 6.98566 5.89107C6.88399 5.8474 6.77464 5.82441 6.66399 5.82345C6.55334 5.82249 6.44361 5.84357 6.3412 5.88547C6.23878 5.92737 6.14574 5.98925 6.0675 6.0675C5.98925 6.14574 5.92737 6.23878 5.88547 6.3412C5.84357 6.44361 5.82249 6.55334 5.82345 6.66399C5.82441 6.77464 5.8474 6.88399 5.89107 6.98566C5.93475 7.08733 5.99823 7.17929 6.07783 7.25616L7.25616 6.07783ZM9.16699 9.16699L9.75616 9.75616C9.91238 9.59988 10.0001 9.38796 10.0001 9.16699C10.0001 8.94602 9.91238 8.7341 9.75616 8.57782L9.16699 9.16699ZM6.07783 11.0778C5.99823 11.1547 5.93475 11.2467 5.89107 11.3483C5.8474 11.45 5.82441 11.5593 5.82345 11.67C5.82249 11.7806 5.84357 11.8904 5.88547 11.9928C5.92737 12.0952 5.98925 12.1882 6.0675 12.2665C6.14574 12.3447 6.23878 12.4066 6.3412 12.4485C6.44361 12.4904 6.55334 12.5115 6.66399 12.5105C6.77464 12.5096 6.88399 12.4866 6.98566 12.4429C7.08733 12.3992 7.17929 12.3357 7.25616 12.2562L6.07783 11.0778ZM5.83366 3.33366H14.167V1.66699H5.83366V3.33366ZM16.667 5.83366V14.167H18.3337V5.83366H16.667ZM14.167 16.667H5.83366V18.3337H14.167V16.667ZM3.33366 14.167V5.83366H1.66699V14.167H3.33366ZM5.83366 16.667C5.17062 16.667 4.53473 16.4036 4.06589 15.9348C3.59705 15.4659 3.33366 14.83 3.33366 14.167H1.66699C1.66699 15.2721 2.10598 16.3319 2.88738 17.1133C3.66878 17.8947 4.72859 18.3337 5.83366 18.3337V16.667ZM16.667 14.167C16.667 14.83 16.4036 15.4659 15.9348 15.9348C15.4659 16.4036 14.83 16.667 14.167 16.667V18.3337C15.2721 18.3337 16.3319 17.8947 17.1133 17.1133C17.8947 16.3319 18.3337 15.2721 18.3337 14.167H16.667ZM14.167 3.33366C14.83 3.33366 15.4659 3.59705 15.9348 4.06589C16.4036 4.53473 16.667 5.17062 16.667 5.83366H18.3337C18.3337 4.72859 17.8947 3.66878 17.1133 2.88738C16.3319 2.10598 15.2721 1.66699 14.167 1.66699V3.33366ZM5.83366 1.66699C4.72859 1.66699 3.66878 2.10598 2.88738 2.88738C2.10598 3.66878 1.66699 4.72859 1.66699 5.83366H3.33366C3.33366 5.17062 3.59705 4.53473 4.06589 4.06589C4.53473 3.59705 5.17062 3.33366 5.83366 3.33366V1.66699ZM13.3337 13.3337H6.66699V15.0003H13.3337V13.3337ZM6.07783 7.25616L8.57782 9.75616L9.75616 8.57782L7.25616 6.07783L6.07783 7.25616ZM8.57782 8.57782L6.07783 11.0778L7.25616 12.2562L9.75616 9.75616L8.57782 8.57782Z" fill="white"/>
</svg>
